<mxfile host="app.diagrams.net" modified="2022-09-20T05:52:29.641Z" agent="5.0 (Windows NT 10.0; Win64; x64) AppleWebKit/537.36 (KHTML, like Gecko) Chrome/105.0.0.0 Safari/537.36 Edg/105.0.1343.42" etag="qCDrlE2JZpcKlP2_0iIN" version="20.2.7" type="github">
  <diagram id="SR8NQIJ-rLTWkiFvFX7K" name="第 1 页">
    <mxGraphModel dx="1040" dy="571" grid="1" gridSize="10" guides="1" tooltips="1" connect="1" arrows="1" fold="1" page="1" pageScale="1" pageWidth="827" pageHeight="1169" math="0" shadow="0">
      <root>
        <mxCell id="0" />
        <mxCell id="1" parent="0" />
        <mxCell id="oCfMcjcs1P-XbT3DFW5C-1" value="" style="fontColor=#0066CC;verticalAlign=top;verticalLabelPosition=bottom;labelPosition=center;align=center;html=1;outlineConnect=0;fillColor=#CCCCCC;strokeColor=#6881B3;gradientColor=none;gradientDirection=north;strokeWidth=2;shape=mxgraph.networks.pc;fontSize=18;" vertex="1" parent="1">
          <mxGeometry x="160" y="160" width="120" height="120" as="geometry" />
        </mxCell>
        <mxCell id="oCfMcjcs1P-XbT3DFW5C-2" value="" style="fontColor=#0066CC;verticalAlign=top;verticalLabelPosition=bottom;labelPosition=center;align=center;html=1;outlineConnect=0;fillColor=#CCCCCC;strokeColor=#6881B3;gradientColor=none;gradientDirection=north;strokeWidth=2;shape=mxgraph.networks.pc;fontSize=18;" vertex="1" parent="1">
          <mxGeometry x="440" y="160" width="120" height="120" as="geometry" />
        </mxCell>
        <mxCell id="oCfMcjcs1P-XbT3DFW5C-3" value="VM on src server" style="text;html=1;strokeColor=none;fillColor=none;align=center;verticalAlign=middle;whiteSpace=wrap;rounded=0;fontSize=18;" vertex="1" parent="1">
          <mxGeometry x="140" y="120" width="160" height="40" as="geometry" />
        </mxCell>
        <mxCell id="oCfMcjcs1P-XbT3DFW5C-4" value="VM on dst server" style="text;html=1;strokeColor=none;fillColor=none;align=center;verticalAlign=middle;whiteSpace=wrap;rounded=0;fontSize=18;" vertex="1" parent="1">
          <mxGeometry x="420" y="120" width="160" height="40" as="geometry" />
        </mxCell>
      </root>
    </mxGraphModel>
  </diagram>
</mxfile>
